<svg width="98" height="78" viewBox="0 0 98 78" fill="none" xmlns="http://www.w3.org/2000/svg">
<path d="M79.4949 28.0994C72.8131 28.0994 67.4002 33.7078 67.4002 40.6243C67.3965 42.9029 67.9964 45.1388 69.134 47.0891L63.2704 53.1616L63.2906 53.1829C62.6646 53.803 62.2804 54.6838 62.2804 55.6794C62.2799 57.6023 63.7591 59.1061 65.6142 59.1056C66.5617 59.1051 67.4093 58.7127 68.0138 58.0737L68.0285 58.0892L74.0788 51.823C75.7595 52.697 77.6142 53.1509 79.4949 53.149C86.1768 53.149 91.5888 47.5416 91.5888 40.6243C91.5888 33.7078 86.1763 28.0994 79.4949 28.0994ZM79.5682 48.2242C75.3918 48.2242 72.0089 44.7195 72.0089 40.3961C72.0089 36.0734 75.3918 32.5681 79.5682 32.5681C83.7447 32.5681 87.1266 36.0731 87.1266 40.3961C87.127 44.7195 83.7447 48.2242 79.5682 48.2242Z" fill="black"/>
<path d="M44.1433 7.0855C42.6299 7.0855 41.2913 7.8826 40.3545 8.91002C39.4195 9.94093 38.7355 11.2305 38.1381 12.621C37.2134 14.7643 36.5623 17.145 35.9736 19.3751C34.0913 19.9349 32.493 20.6328 31.2117 21.4778C29.7087 22.4661 28.4498 23.8372 28.4498 25.6847C28.4498 27.2931 29.4074 28.5756 30.6143 29.5037C31.6411 30.2937 32.9069 30.9491 34.403 31.4965C34.4862 31.911 34.6212 32.3291 34.7805 32.7187C33.3208 33.5637 31.0091 35.1933 28.7753 38.3091L27.7467 39.8041L29.2082 40.8546L34.8879 44.8401L33.8073 47.0543L32.5606 49.5978H65.894L64.647 47.0507L63.5686 44.8365L69.253 40.851L70.7148 39.8006L69.6876 38.302C67.4542 35.1844 65.1407 33.5548 63.6794 32.7117C63.8401 32.3184 63.9734 31.9021 64.0599 31.4894C65.5547 30.9439 66.8204 30.2885 67.8471 29.4984C69.0557 28.5702 70.0118 27.2878 70.0118 25.6794C70.0118 23.8283 68.758 22.4608 67.2532 21.4724C65.9682 20.6275 64.3718 19.9314 62.4915 19.3681C61.8453 17.06 61.1286 14.6386 60.2196 12.5059C59.6307 11.1331 58.9813 9.86651 58.0549 8.85334C57.1267 7.84365 55.811 7.08196 54.3199 7.08196C53.3102 7.08196 52.5468 7.36892 51.7225 7.57797C50.9 7.7905 50.0638 7.96763 49.234 7.96763C47.5717 7.96763 46.1795 7.08196 44.1485 7.08196L44.1433 7.0855ZM44.1433 10.6282C44.4983 10.6282 46.6297 11.5139 49.229 11.5139C50.5277 11.5139 51.6877 11.2482 52.5848 11.0179C53.4819 10.7841 54.1656 10.6282 54.3163 10.6282C54.7147 10.6282 55.0142 10.7558 55.506 11.2925C55.9978 11.8292 56.5794 12.7857 57.0749 13.9495C58.0187 16.1513 58.7373 19.1573 59.513 21.9206C59.513 21.917 59.6064 21.8355 59.3518 21.9737C58.9191 22.2164 58.0151 22.5281 56.9156 22.6964C54.7165 23.033 51.7206 23.0277 49.2326 23.0277C46.7561 23.0277 43.7537 22.9923 41.5493 22.638C40.448 22.4661 39.558 22.1632 39.1147 21.9206C38.9796 21.8462 38.9294 21.8745 38.8983 21.8674C38.8986 21.8479 38.8986 21.8285 38.8983 21.809C38.9052 21.7913 38.8983 21.7736 38.8983 21.7558C38.9177 21.7374 38.9368 21.7185 38.9554 21.6992C39.0843 21.4609 39.1578 21.1954 39.1701 20.9233C39.1704 20.9056 39.1704 20.8879 39.1701 20.8702C39.7935 18.5178 40.4861 16.0255 41.3346 14.0593C41.842 12.8778 42.3909 11.9124 42.9034 11.3491C43.4178 10.7823 43.7693 10.6282 44.1502 10.6282H44.1433ZM35.7 23.1942C36.0913 24.0267 36.7805 24.6892 37.487 25.0754C38.5346 25.651 39.7485 25.9203 41.0541 26.1275C43.6688 26.542 46.7236 26.5704 49.2271 26.5704C51.7156 26.5704 54.7788 26.5828 57.4005 26.1807C58.7061 25.9823 59.9114 25.7201 60.9674 25.132C61.6773 24.737 62.3651 24.0373 62.7511 23.1942C63.8246 23.5839 64.7217 23.9984 65.3486 24.4111C66.3529 25.0771 66.5434 25.5714 66.5434 25.6865C66.5434 25.7928 66.4513 26.1293 65.7296 26.6855C65.0074 27.2399 63.7604 27.8794 62.1622 28.4002C58.9539 29.4453 54.3355 30.1184 49.2271 30.1184C44.1191 30.1184 39.4956 29.4453 36.2922 28.4002C34.6905 27.8812 33.4437 27.2417 32.7251 26.6855C31.9996 26.1275 31.913 25.791 31.913 25.6847C31.913 25.5678 32.0481 25.1267 33.0489 24.466C33.6775 24.0533 34.6074 23.5981 35.7017 23.1942H35.7ZM40.1918 32.8835C40.7632 32.9773 41.3277 33.135 41.9233 33.2129C42.1485 34.7664 43.3363 36.1392 45.2307 36.2597C46.6851 36.3482 48.3305 35.6432 48.4738 33.6558C48.7339 33.6593 48.9725 33.6558 49.2326 33.6558C49.4923 33.6558 49.7345 33.6593 49.9942 33.6558C50.1362 35.6432 51.7816 36.3482 53.2392 36.2597C55.1305 36.1392 56.3147 34.7664 56.5396 33.2129C57.1372 33.135 57.7 32.9773 58.2715 32.8799L58.1071 33.987C57.5736 36.8973 56.2992 39.6022 54.6954 41.4621C53.0972 43.322 51.2151 44.314 49.2326 44.2839C47.1962 44.2538 45.3537 43.2494 43.7675 41.4055C42.1779 39.5632 40.9277 36.9115 40.3563 33.987L40.1953 32.8799L40.1918 32.8835ZM61.3503 35.4236C61.9942 35.8097 63.6876 36.947 65.627 39.1328L60.3772 42.8402L59.1302 43.6728L59.7814 45.0544L60.2663 46.0517H54.8049C55.7226 45.4045 56.5579 44.6428 57.2915 43.7844C59.1961 41.5702 60.4775 38.6652 61.1873 35.5352C61.2463 35.4997 61.2912 35.459 61.3503 35.4254V35.4236ZM37.0558 35.4767C37.1216 35.5193 37.1996 35.5511 37.2705 35.5901C38.0117 38.6811 39.2879 41.5472 41.1666 43.7259C41.9459 44.6293 42.8515 45.4087 43.816 46.0517H38.1883L38.6766 45.0544L39.326 43.6728L38.0861 42.8402L32.8359 39.1328C34.6714 37.0639 36.339 35.9231 37.061 35.4785L37.0558 35.4767Z" fill="black"/>
<path d="M18.9259 66.9356C19.0386 66.2603 18.7247 65.7433 17.9841 65.3858L16.4305 64.7298C14.6274 63.8786 13.7714 62.7062 13.8626 61.213C13.9002 60.5202 14.1149 59.9069 14.5066 59.3735C14.8984 58.8396 15.4485 58.4225 16.1568 58.1216C16.8652 57.815 17.6299 57.6672 18.451 57.6788C19.5834 57.7016 20.4983 58.0591 21.196 58.7519C21.8937 59.4389 22.2371 60.3613 22.2264 61.5192H19.8758C19.9027 60.9572 19.7846 60.5202 19.5216 60.2078C19.264 59.8958 18.8616 59.7339 18.3142 59.7223C17.7775 59.7112 17.3106 59.842 16.9135 60.1143C16.5164 60.3812 16.2803 60.7504 16.2051 61.2213C16.1032 61.8404 16.4949 62.3312 17.3804 62.6946L18.443 63.1204L19.0548 63.4184C20.6379 64.2473 21.3785 65.4115 21.2765 66.9099C21.2282 67.6425 21.0055 68.2757 20.6084 68.8091C20.2166 69.3372 19.68 69.7431 18.9984 70.027C18.3222 70.3109 17.5763 70.4442 16.7606 70.4272C15.9288 70.4103 15.1882 70.2257 14.5388 69.8739C13.8895 69.5217 13.3958 69.0251 13.0577 68.3832C12.741 67.7873 12.5935 67.1062 12.6149 66.3397L14.9735 66.348C14.8984 67.6938 15.5236 68.3779 16.8491 68.4007C17.4233 68.4007 17.8956 68.2669 18.2659 68C18.6362 67.7335 18.8562 67.3784 18.9259 66.9356ZM30.6143 65.6668C30.5016 66.6319 30.2628 67.4894 29.8978 68.2389C29.5329 68.9878 29.0794 69.5445 28.5374 69.9079C27.9954 70.2712 27.3943 70.4442 26.7343 70.4272C25.8917 70.4044 25.2263 70.0726 24.7379 69.4307L23.941 73.7909H21.671L23.7558 61.0338L25.8488 61.0255L25.6958 61.9538C26.3237 61.2043 27.0643 60.841 27.9176 60.8637C28.7709 60.8865 29.4336 61.2155 29.9059 61.8516C30.3781 62.4819 30.6304 63.3389 30.6625 64.4236C30.6733 64.7754 30.6572 65.1901 30.6143 65.6668ZM28.3603 65.488L28.4086 64.6702C28.4194 64.1199 28.3228 63.6824 28.1188 63.3588C27.9203 63.0351 27.6278 62.868 27.2414 62.8564C26.5813 62.8336 26.0366 63.1291 25.6073 63.742L24.9552 67.5402C25.1538 68.1139 25.5805 68.4118 26.2352 68.4346C26.7826 68.4515 27.2387 68.2272 27.6036 67.7617C27.9686 67.2961 28.2208 66.5384 28.3603 65.488ZM34.9289 66.7399L37.4164 61.0338H39.944L34.8485 71.6365C34.4835 72.4484 34.0542 73.0443 33.5605 73.4251C33.0722 73.8054 32.506 73.9953 31.862 73.9953C31.6098 73.9953 31.2448 73.9358 30.7672 73.8166L30.9363 71.9431L31.2502 71.9601C31.9908 71.9829 32.5328 71.696 32.8763 71.1001L33.3754 70.1205L31.9505 61.0338H34.3011L34.9289 66.7399ZM52.9603 68.6817C52.5417 69.2437 51.9276 69.6777 51.1171 69.9844C50.312 70.2853 49.4025 70.4272 48.3882 70.4103C47.5886 70.4044 46.8857 70.2199 46.2794 69.8565C45.6728 69.4878 45.1951 68.9597 44.8463 68.2728C44.4975 67.5858 44.2989 66.8024 44.2506 65.9221C44.1969 65.1048 44.2774 64.1451 44.4921 63.0439C44.7121 61.9368 45.0851 60.9689 45.611 60.1399C46.1424 59.3052 46.7781 58.6836 47.519 58.2747C48.2595 57.8605 49.0806 57.6619 49.9823 57.6788C51.2055 57.7016 52.1635 58.0674 52.8559 58.7771C53.5483 59.4811 53.9426 60.4917 54.0392 61.8089L51.7692 61.8002C51.7101 61.1079 51.5356 60.5968 51.2458 60.2674C50.9559 59.9384 50.524 59.762 49.9498 59.7398C48.957 59.7054 48.1734 60.168 47.5991 61.1278C47.0304 62.0817 46.7057 63.4668 46.6251 65.2836C46.5715 66.2545 46.7112 67.0068 47.0441 67.5402C47.3821 68.0741 47.8945 68.3464 48.5814 68.358C49.381 68.3808 50.0624 68.1793 50.6262 67.7534L51.0204 65.6159H48.8791L49.1932 63.7337H53.6687L52.9603 68.6817ZM59.4407 70.2484C59.3706 70.0159 59.3413 69.7373 59.3518 69.4137C58.6974 70.1065 57.9569 70.4413 57.1303 70.419C56.3683 70.4074 55.735 70.1462 55.2303 69.6351C54.7316 69.1187 54.4981 68.4825 54.5301 67.7277C54.5677 66.7229 54.9647 65.9536 55.7217 65.4197C56.4837 64.8805 57.5031 64.6106 58.7803 64.6106L59.8432 64.6276L59.9558 64.0743C59.9879 63.8868 59.9962 63.7081 59.9801 63.5375C59.9531 63.2711 59.8565 63.0637 59.6902 62.916C59.529 62.7629 59.3143 62.6834 59.0464 62.6776C58.6919 62.6665 58.3915 62.76 58.1447 62.9586C57.8979 63.1519 57.7394 63.4329 57.6698 63.8016L55.3915 63.8103C55.4291 62.9305 55.8101 62.2178 56.5346 61.6728C57.2645 61.122 58.1635 60.8521 59.2314 60.8637C60.2187 60.8865 60.9917 61.1985 61.5495 61.8002C62.1077 62.3966 62.3413 63.1659 62.2502 64.1082L61.582 68.5199L61.5417 69.0649C61.5307 69.468 61.5765 69.8085 61.6786 70.0866L61.6704 70.2484H59.4407ZM57.6936 68.5538C58.3485 68.5765 58.92 68.2757 59.4086 67.6512L59.6902 66.0587L58.9012 66.05C58.0641 66.0728 57.4605 66.3426 57.09 66.8591C56.9559 67.0466 56.8725 67.2762 56.8405 67.549C56.7974 67.8556 56.8565 68.0993 57.0177 68.281C57.1839 68.4573 57.4092 68.5479 57.6936 68.5538ZM66.6853 61.0255L66.5003 62.073C67.2033 61.244 68.0537 60.841 69.052 60.8637C69.5887 60.8749 70.0343 61.0057 70.3883 61.2557C70.7427 61.5052 70.9813 61.8429 71.105 62.2687C71.872 61.3095 72.7737 60.841 73.8096 60.8637C74.6091 60.8807 75.21 61.1704 75.6125 61.7324C76.0205 62.2944 76.1923 63.1064 76.1277 64.1678L76.1117 64.381L75.1862 70.2484H72.9079L73.8338 64.364C73.8549 64.1538 73.8632 63.9581 73.8577 63.7764C73.8201 63.18 73.4982 62.8733 72.8918 62.8564C72.269 62.8564 71.7351 63.2086 71.29 63.9125L71.2657 64.1082L70.2513 70.2484H67.9813L68.9073 64.381C68.9288 64.1707 68.9366 63.975 68.9311 63.7933C68.8935 63.1916 68.5744 62.882 67.9735 62.8651C67.3993 62.8481 66.8813 63.1345 66.4197 63.725L65.333 70.2484H63.063L64.5683 61.0338L66.6853 61.0255ZM81.1266 70.419C80.3646 70.4132 79.6887 70.2174 79.0984 69.8313C78.5131 69.4394 78.0758 68.906 77.7859 68.2301C77.4965 67.549 77.3834 66.7995 77.4479 65.9817L77.4722 65.6411C77.5528 64.7444 77.7996 63.9208 78.2127 63.1718C78.6258 62.4223 79.1574 61.8458 79.8063 61.4427C80.4557 61.0338 81.1751 60.841 81.9637 60.8637C83.0857 60.8865 83.9333 61.3235 84.5076 62.1752C85.0874 63.0211 85.3072 64.0942 85.168 65.394L85.0388 66.4419H79.7019C79.6804 67.0379 79.8173 67.5146 80.1123 67.8726C80.4076 68.2301 80.8102 68.4147 81.3199 68.4259C82.1464 68.4486 82.8709 68.111 83.4933 67.4123L84.5319 68.7752C84.2044 69.2974 83.7323 69.7063 83.115 70.0014C82.4977 70.2911 81.835 70.4301 81.1266 70.419ZM81.8511 62.8481C81.4325 62.8365 81.0597 62.9755 80.7323 63.2653C80.4104 63.555 80.1205 64.0574 79.8631 64.7725H82.9863L83.0344 64.5511C83.0669 64.3238 83.0692 64.1082 83.0426 63.9038C82.9891 63.5748 82.8576 63.319 82.6483 63.1374C82.4391 62.9504 82.173 62.8535 81.8511 62.8481Z" fill="#D87474"/>
</svg>
