<svg width="169" height="45" viewBox="0 0 169 45" fill="none" xmlns="http://www.w3.org/2000/svg">
<g filter="url(#filter0_d)">
<path d="M4 10C4 4.47715 8.47715 0 14 0H155C160.523 0 165 4.47715 165 10V27C165 32.5228 160.523 37 155 37H14C8.47715 37 4 32.5228 4 27V10Z" fill="#BDBDBD"/>
</g>
<path d="M67.7402 21.429H61.7832L60.4453 25.1399H58.5117L63.9414 10.9211H65.582L71.0215 25.1399H69.0977L67.7402 21.429ZM62.3496 19.886H67.1836L64.7617 13.2356L62.3496 19.886ZM79.0586 24.095C78.3555 24.9218 77.3236 25.3352 75.9629 25.3352C74.8366 25.3352 73.9772 25.0097 73.3848 24.3586C72.7988 23.7011 72.5026 22.731 72.4961 21.4485V14.5735H74.3027V21.3997C74.3027 23.0012 74.9538 23.802 76.2559 23.802C77.6361 23.802 78.554 23.2877 79.0098 22.259V14.5735H80.8164V25.1399H79.0977L79.0586 24.095ZM83.1309 19.7688C83.1309 18.1477 83.515 16.8456 84.2832 15.8625C85.0514 14.873 86.0573 14.3782 87.3008 14.3782C88.5378 14.3782 89.5176 14.8014 90.2402 15.6477V10.1399H92.0469V25.1399H90.3867L90.2988 24.0071C89.5762 24.8925 88.5703 25.3352 87.2812 25.3352C86.0573 25.3352 85.0579 24.8339 84.2832 23.8313C83.515 22.8287 83.1309 21.5201 83.1309 19.9055V19.7688ZM84.9375 19.9739C84.9375 21.1718 85.1849 22.1093 85.6797 22.7864C86.1745 23.4635 86.8581 23.802 87.7305 23.802C88.8763 23.802 89.7129 23.2877 90.2402 22.259V17.4055C89.6999 16.4094 88.8698 15.9114 87.75 15.9114C86.8646 15.9114 86.1745 16.2532 85.6797 16.9368C85.1849 17.6204 84.9375 18.6327 84.9375 19.9739ZM96.8223 25.1399H95.0156V14.5735H96.8223V25.1399ZM94.8691 11.7708C94.8691 11.4778 94.957 11.2304 95.1328 11.0286C95.3151 10.8267 95.582 10.7258 95.9336 10.7258C96.2852 10.7258 96.5521 10.8267 96.7344 11.0286C96.9167 11.2304 97.0078 11.4778 97.0078 11.7708C97.0078 12.0637 96.9167 12.3079 96.7344 12.5032C96.5521 12.6985 96.2852 12.7961 95.9336 12.7961C95.582 12.7961 95.3151 12.6985 95.1328 12.5032C94.957 12.3079 94.8691 12.0637 94.8691 11.7708ZM99.2441 19.759C99.2441 18.7239 99.446 17.7929 99.8496 16.9661C100.26 16.1392 100.826 15.5012 101.549 15.052C102.278 14.6028 103.108 14.3782 104.039 14.3782C105.478 14.3782 106.64 14.8762 107.525 15.8723C108.417 16.8684 108.863 18.1933 108.863 19.8469V19.9739C108.863 21.0025 108.665 21.927 108.268 22.7473C107.877 23.5611 107.314 24.1959 106.578 24.6516C105.849 25.1073 105.009 25.3352 104.059 25.3352C102.626 25.3352 101.464 24.8372 100.572 23.8411C99.6868 22.845 99.2441 21.5266 99.2441 19.886V19.759ZM101.061 19.9739C101.061 21.1458 101.331 22.0865 101.871 22.7961C102.418 23.5058 103.147 23.8606 104.059 23.8606C104.977 23.8606 105.706 23.5025 106.246 22.7864C106.786 22.0637 107.057 21.0546 107.057 19.759C107.057 18.6002 106.78 17.6627 106.227 16.9465C105.68 16.2239 104.951 15.8625 104.039 15.8625C103.147 15.8625 102.428 16.2174 101.881 16.927C101.334 17.6366 101.061 18.6523 101.061 19.9739Z" fill="black"/>
<defs>
<filter id="filter0_d" x="0" y="0" width="169" height="45" filterUnits="userSpaceOnUse" color-interpolation-filters="sRGB">
<feFlood flood-opacity="0" result="BackgroundImageFix"/>
<feColorMatrix in="SourceAlpha" type="matrix" values="0 0 0 0 0 0 0 0 0 0 0 0 0 0 0 0 0 0 127 0"/>
<feOffset dy="4"/>
<feGaussianBlur stdDeviation="2"/>
<feColorMatrix type="matrix" values="0 0 0 0 0 0 0 0 0 0 0 0 0 0 0 0 0 0 0.25 0"/>
<feBlend mode="normal" in2="BackgroundImageFix" result="effect1_dropShadow"/>
<feBlend mode="normal" in="SourceGraphic" in2="effect1_dropShadow" result="shape"/>
</filter>
</defs>
</svg>
