<svg width="214" height="161" viewBox="0 0 214 161" fill="none" xmlns="http://www.w3.org/2000/svg">
<path d="M173.591 58C159 58 147.18 69.5764 147.18 83.8527C147.172 88.5559 148.482 93.1712 150.966 97.1967L138.162 109.731L138.206 109.775C136.839 111.055 136 112.873 136 114.928C135.999 118.897 139.229 122.001 143.28 122C145.349 121.999 147.2 121.189 148.52 119.87L148.552 119.902L161.764 106.968C165.434 108.772 169.484 109.709 173.591 109.705C188.182 109.705 200 98.1307 200 83.8527C200 69.5764 188.181 58 173.591 58ZM173.751 99.5396C164.631 99.5396 157.244 92.3057 157.244 83.3817C157.244 74.4593 164.631 67.2238 173.751 67.2238C182.871 67.2238 190.256 74.4585 190.256 83.3817C190.257 92.3057 182.871 99.5396 173.751 99.5396Z" fill="black"/>
<path d="M96.3945 14.6252C93.0897 14.6252 90.1668 16.2705 88.1211 18.3912C86.0793 20.5191 84.5857 23.1809 83.2811 26.051C81.2619 30.4751 79.8402 35.3891 78.5546 39.9923C74.4443 41.1477 70.9542 42.5882 68.1561 44.3323C64.874 46.3724 62.125 49.2024 62.125 53.0159C62.125 56.3357 64.2161 58.9829 66.8516 60.8987C69.0939 62.5294 71.858 63.8822 75.125 65.012C75.3065 65.8676 75.6014 66.7305 75.9493 67.5348C72.7617 69.2789 67.7137 72.6426 62.8359 79.074L60.5898 82.1598L63.7812 84.328L76.1837 92.5545L73.8242 97.1249L71.1017 102.375H143.891L141.168 97.1175L138.813 92.5472L151.226 84.3207L154.418 82.1525L152.175 79.0593C147.298 72.6243 142.246 69.2606 139.055 67.5202C139.406 66.7085 139.697 65.8493 139.886 64.9974C143.15 63.8713 145.914 62.5185 148.156 60.8878C150.795 58.9719 152.883 56.3248 152.883 53.0049C152.883 49.1841 150.145 46.3615 146.859 44.3213C144.053 42.5773 140.567 41.1404 136.461 39.9777C135.05 35.2136 133.485 30.2155 131.5 25.8134C130.214 22.9798 128.796 20.3655 126.773 18.2742C124.746 16.1901 121.873 14.6179 118.617 14.6179C116.412 14.6179 114.745 15.2102 112.945 15.6417C111.149 16.0804 109.323 16.446 107.511 16.446C103.881 16.446 100.841 14.6179 96.4058 14.6179L96.3945 14.6252ZM96.3945 21.9377C97.1697 21.9377 101.824 23.7659 107.5 23.7659C110.336 23.7659 112.869 23.2174 114.828 22.7421C116.787 22.2595 118.28 21.9377 118.609 21.9377C119.479 21.9377 120.133 22.201 121.207 23.3088C122.281 24.4167 123.551 26.391 124.633 28.7932C126.694 33.3379 128.263 39.5426 129.957 45.2463C129.957 45.239 130.161 45.0708 129.605 45.356C128.66 45.8569 126.686 46.5004 124.285 46.8478C119.483 47.5424 112.941 47.5315 107.508 47.5315C102.1 47.5315 95.5437 47.4584 90.7302 46.7271C88.3253 46.3724 86.3818 45.7472 85.4138 45.2463C85.1188 45.0928 85.0092 45.1513 84.9411 45.1366C84.9418 45.0964 84.9418 45.0562 84.9411 45.016C84.9562 44.9794 84.9411 44.9429 84.9411 44.9063C84.9836 44.8682 85.0252 44.8292 85.0659 44.7893C85.3474 44.2974 85.5079 43.7494 85.5347 43.1879C85.5353 43.1513 85.5353 43.1147 85.5347 43.0782C86.896 38.2227 88.4085 33.0783 90.2613 29.0199C91.3692 26.5812 92.5679 24.5885 93.6871 23.4258C94.8102 22.2558 95.5778 21.9377 96.4096 21.9377H96.3945ZM77.9571 47.8752C78.8117 49.5936 80.3166 50.961 81.8594 51.7581C84.147 52.9464 86.7977 53.5021 89.6488 53.9299C95.3584 54.7855 102.029 54.844 107.496 54.844C112.93 54.844 119.619 54.8696 125.344 54.0396C128.195 53.6301 130.827 53.089 133.133 51.8751C134.683 51.0598 136.185 49.6155 137.028 47.8752C139.372 48.6795 141.331 49.5351 142.7 50.387C144.893 51.7618 145.309 52.7819 145.309 53.0195C145.309 53.2389 145.108 53.9336 143.532 55.0816C141.955 56.226 139.232 57.546 135.742 58.6209C128.736 60.7781 118.651 62.1674 107.496 62.1674C96.3416 62.1674 86.2456 60.7781 79.2503 58.6209C75.7527 57.5496 73.0302 56.2297 71.4609 55.0816C69.8766 53.9299 69.6875 53.2352 69.6875 53.0159C69.6875 52.7745 69.9825 51.8641 72.168 50.5004C73.5406 49.6485 75.5712 48.7088 77.9609 47.8752H77.9571ZM87.7657 67.8749C89.0135 68.0686 90.2462 68.394 91.5469 68.5549C92.0385 71.7615 94.6324 74.595 98.7691 74.8437C101.945 75.0265 105.538 73.5713 105.851 69.469C106.419 69.4763 106.94 69.469 107.508 69.469C108.075 69.469 108.604 69.4763 109.171 69.469C109.481 73.5713 113.074 75.0265 116.257 74.8437C120.387 74.595 122.973 71.7615 123.464 68.5549C124.769 68.394 125.998 68.0686 127.246 67.8675L126.887 70.1527C125.722 76.1599 122.939 81.743 119.437 85.5821C115.947 89.4211 111.837 91.4686 107.508 91.4065C103.061 91.3443 99.0376 89.2712 95.574 85.4651C92.1028 81.6626 89.3727 76.1892 88.1249 70.1527L87.7733 67.8675L87.7657 67.8749ZM133.969 73.1179C135.375 73.915 139.073 76.2623 143.308 80.7741L131.844 88.4266L129.121 90.1451L130.543 92.997L131.602 95.0554H119.676C121.68 93.7195 123.504 92.1474 125.106 90.3754C129.265 85.8051 132.063 79.8089 133.613 73.3483C133.742 73.2751 133.84 73.1911 133.969 73.1216V73.1179ZM80.9178 73.2276C81.0615 73.3154 81.2317 73.3812 81.3867 73.4616C83.0051 79.8418 85.7919 85.7576 89.8945 90.2548C91.5961 92.1195 93.5737 93.7282 95.6798 95.0554H83.3908L84.4571 92.997L85.8751 90.1451L83.1677 88.4266L71.7029 80.7741C75.7111 76.5036 79.3524 74.149 80.9292 73.2313L80.9178 73.2276Z" fill="black"/>
<path d="M41.3281 138.162C41.5742 136.768 40.8887 135.701 39.2715 134.963L35.8789 133.609C31.9414 131.852 30.0723 129.432 30.2715 126.35C30.3535 124.92 30.8223 123.654 31.6777 122.553C32.5332 121.451 33.7344 120.59 35.2812 119.969C36.8281 119.336 38.498 119.031 40.291 119.055C42.7637 119.102 44.7617 119.84 46.2852 121.27C47.8086 122.688 48.5586 124.592 48.5352 126.982H43.4023C43.4609 125.822 43.2031 124.92 42.6289 124.275C42.0664 123.631 41.1875 123.297 39.9922 123.273C38.8203 123.25 37.8008 123.52 36.9336 124.082C36.0664 124.633 35.5508 125.395 35.3867 126.367C35.1641 127.645 36.0195 128.658 37.9531 129.408L40.2734 130.287L41.6094 130.902C45.0664 132.613 46.6836 135.016 46.4609 138.109C46.3555 139.621 45.8691 140.928 45.002 142.029C44.1465 143.119 42.9746 143.957 41.4863 144.543C40.0098 145.129 38.3809 145.404 36.5996 145.369C34.7832 145.334 33.166 144.953 31.748 144.227C30.3301 143.5 29.252 142.475 28.5137 141.15C27.8223 139.92 27.5 138.514 27.5469 136.932L32.6973 136.949C32.5332 139.727 33.8984 141.139 36.793 141.186C38.0469 141.186 39.0781 140.91 39.8867 140.359C40.6953 139.809 41.1758 139.076 41.3281 138.162ZM66.8516 135.543C66.6055 137.535 66.084 139.305 65.2871 140.852C64.4902 142.398 63.5 143.547 62.3164 144.297C61.1328 145.047 59.8203 145.404 58.3789 145.369C56.5391 145.322 55.0859 144.637 54.0195 143.312L52.2793 152.312H47.3223L51.875 125.98L56.4453 125.963L56.1113 127.879C57.4824 126.332 59.0996 125.582 60.9629 125.629C62.8262 125.676 64.2734 126.355 65.3047 127.668C66.3359 128.969 66.8867 130.738 66.957 132.977C66.9805 133.703 66.9453 134.559 66.8516 135.543ZM61.9297 135.174L62.0352 133.486C62.0586 132.35 61.8477 131.447 61.4023 130.779C60.9688 130.111 60.3301 129.766 59.4863 129.742C58.0449 129.695 56.8555 130.305 55.918 131.57L54.4941 139.41C54.9277 140.594 55.8594 141.209 57.2891 141.256C58.4844 141.291 59.4805 140.828 60.2773 139.867C61.0742 138.906 61.625 137.342 61.9297 135.174ZM76.2734 137.758L81.7051 125.98H87.2246L76.0977 147.865C75.3008 149.541 74.3633 150.771 73.2852 151.557C72.2188 152.342 70.9824 152.734 69.5762 152.734C69.0254 152.734 68.2285 152.611 67.1855 152.365L67.5547 148.498L68.2402 148.533C69.8574 148.58 71.041 147.988 71.791 146.758L72.8809 144.736L69.7695 125.98H74.9023L76.2734 137.758ZM115.648 141.766C114.734 142.926 113.393 143.822 111.623 144.455C109.865 145.076 107.879 145.369 105.664 145.334C103.918 145.322 102.383 144.941 101.059 144.191C99.7344 143.43 98.6914 142.34 97.9297 140.922C97.168 139.504 96.7344 137.887 96.6289 136.07C96.5117 134.383 96.6875 132.402 97.1562 130.129C97.6367 127.844 98.4512 125.846 99.5996 124.135C100.76 122.412 102.148 121.129 103.766 120.285C105.383 119.43 107.176 119.02 109.145 119.055C111.816 119.102 113.908 119.857 115.42 121.322C116.932 122.775 117.793 124.861 118.004 127.58L113.047 127.562C112.918 126.133 112.537 125.078 111.904 124.398C111.271 123.719 110.328 123.355 109.074 123.309C106.906 123.238 105.195 124.193 103.941 126.174C102.699 128.143 101.99 131.002 101.814 134.752C101.697 136.756 102.002 138.309 102.729 139.41C103.467 140.512 104.586 141.074 106.086 141.098C107.832 141.145 109.32 140.729 110.551 139.85L111.412 135.438H106.736L107.422 131.553H117.195L115.648 141.766ZM129.799 145C129.646 144.52 129.582 143.945 129.605 143.277C128.176 144.707 126.559 145.398 124.754 145.352C123.09 145.328 121.707 144.789 120.605 143.734C119.516 142.668 119.006 141.355 119.076 139.797C119.158 137.723 120.025 136.135 121.678 135.033C123.342 133.92 125.568 133.363 128.357 133.363L130.678 133.398L130.924 132.256C130.994 131.869 131.012 131.5 130.977 131.148C130.918 130.598 130.707 130.17 130.344 129.865C129.992 129.549 129.523 129.385 128.938 129.373C128.164 129.35 127.508 129.543 126.969 129.953C126.43 130.352 126.084 130.932 125.932 131.693L120.957 131.711C121.039 129.895 121.871 128.424 123.453 127.299C125.047 126.162 127.01 125.605 129.342 125.629C131.498 125.676 133.186 126.32 134.404 127.562C135.623 128.793 136.133 130.381 135.934 132.326L134.475 141.432L134.387 142.557C134.363 143.389 134.463 144.092 134.686 144.666L134.668 145H129.799ZM125.984 141.502C127.414 141.549 128.662 140.928 129.729 139.639L130.344 136.352L128.621 136.334C126.793 136.381 125.475 136.938 124.666 138.004C124.373 138.391 124.191 138.865 124.121 139.428C124.027 140.061 124.156 140.564 124.508 140.939C124.871 141.303 125.363 141.49 125.984 141.502ZM145.619 125.963L145.215 128.125C146.75 126.414 148.607 125.582 150.787 125.629C151.959 125.652 152.932 125.922 153.705 126.438C154.479 126.953 155 127.65 155.27 128.529C156.945 126.549 158.914 125.582 161.176 125.629C162.922 125.664 164.234 126.262 165.113 127.422C166.004 128.582 166.379 130.258 166.238 132.449L166.203 132.889L164.182 145H159.207L161.229 132.854C161.275 132.42 161.293 132.016 161.281 131.641C161.199 130.41 160.496 129.777 159.172 129.742C157.812 129.742 156.646 130.469 155.674 131.922L155.621 132.326L153.406 145H148.449L150.471 132.889C150.518 132.455 150.535 132.051 150.523 131.676C150.441 130.434 149.744 129.795 148.432 129.76C147.178 129.725 146.047 130.316 145.039 131.535L142.666 145H137.709L140.996 125.98L145.619 125.963ZM177.154 145.352C175.49 145.34 174.014 144.936 172.725 144.139C171.447 143.33 170.492 142.229 169.859 140.834C169.227 139.428 168.98 137.881 169.121 136.193L169.174 135.49C169.35 133.639 169.889 131.939 170.791 130.393C171.693 128.846 172.854 127.656 174.271 126.824C175.689 125.98 177.26 125.582 178.982 125.629C181.432 125.676 183.283 126.578 184.537 128.336C185.803 130.082 186.283 132.297 185.979 134.98L185.697 137.143H174.043C173.996 138.373 174.295 139.357 174.939 140.096C175.584 140.834 176.463 141.215 177.576 141.238C179.381 141.285 180.963 140.588 182.322 139.146L184.59 141.959C183.875 143.037 182.844 143.881 181.496 144.49C180.148 145.088 178.701 145.375 177.154 145.352ZM178.736 129.725C177.822 129.701 177.008 129.988 176.293 130.586C175.59 131.184 174.957 132.221 174.395 133.697H181.215L181.32 133.24C181.391 132.771 181.396 132.326 181.338 131.904C181.221 131.225 180.934 130.697 180.477 130.322C180.02 129.936 179.439 129.736 178.736 129.725Z" fill="#D87474"/>
</svg>
