<svg width="214" height="161" viewBox="0 0 214 161" fill="none" xmlns="http://www.w3.org/2000/svg">
<path d="M173.591 58C159 58 147.18 69.5764 147.18 83.8527C147.172 88.5559 148.482 93.1712 150.966 97.1967L138.162 109.731L138.206 109.775C136.839 111.055 136 112.873 136 114.928C135.999 118.897 139.229 122.001 143.28 122C145.349 121.999 147.2 121.189 148.52 119.87L148.552 119.902L161.764 106.968C165.434 108.772 169.484 109.709 173.591 109.705C188.182 109.705 200 98.1307 200 83.8527C200 69.5764 188.181 58 173.591 58ZM173.751 99.5396C164.631 99.5396 157.244 92.3057 157.244 83.3817C157.244 74.4593 164.631 67.2238 173.751 67.2238C182.871 67.2238 190.256 74.4585 190.256 83.3817C190.257 92.3057 182.871 99.5396 173.751 99.5396Z" fill="black"/>
<path d="M96.3945 14.6251C93.0897 14.6251 90.1668 16.2704 88.1211 18.391C86.0793 20.519 84.5857 23.1807 83.2811 26.0509C81.2619 30.475 79.8402 35.389 78.5546 39.9922C74.4443 41.1475 70.9542 42.5881 68.1561 44.3321C64.874 46.3723 62.125 49.2023 62.125 53.0157C62.125 56.3356 64.2161 58.9827 66.8516 60.8986C69.0939 62.5293 71.858 63.8821 75.125 65.0119C75.3065 65.8675 75.6014 66.7303 75.9493 67.5347C72.7617 69.2787 67.7137 72.6425 62.8359 79.0738L60.5898 82.1597L63.7812 84.3279L76.1837 92.5544L73.8242 97.1247L71.1017 102.375H143.891L141.168 97.1174L138.813 92.5471L151.226 84.3205L154.418 82.1524L152.175 79.0592C147.298 72.6242 142.246 69.2604 139.055 67.5201C139.406 66.7084 139.697 65.8492 139.886 64.9973C143.15 63.8711 145.914 62.5183 148.156 60.8876C150.795 58.9718 152.883 56.3246 152.883 53.0048C152.883 49.184 150.145 46.3614 146.859 44.3212C144.053 42.5771 140.567 41.1402 136.461 39.9775C135.05 35.2135 133.485 30.2154 131.5 25.8132C130.214 22.9796 128.796 20.3654 126.773 18.274C124.746 16.19 121.873 14.6178 118.617 14.6178C116.412 14.6178 114.745 15.2101 112.945 15.6415C111.149 16.0803 109.323 16.4459 107.511 16.4459C103.881 16.4459 100.841 14.6178 96.4058 14.6178L96.3945 14.6251ZM96.3945 21.9376C97.1697 21.9376 101.824 23.7657 107.5 23.7657C110.336 23.7657 112.869 23.2173 114.828 22.742C116.787 22.2594 118.28 21.9376 118.609 21.9376C119.479 21.9376 120.133 22.2009 121.207 23.3087C122.281 24.4165 123.551 26.3909 124.633 28.7931C126.694 33.3378 128.263 39.5425 129.957 45.2462C129.957 45.2389 130.161 45.0707 129.605 45.3559C128.66 45.8568 126.686 46.5003 124.285 46.8476C119.483 47.5423 112.941 47.5314 107.508 47.5314C102.1 47.5314 95.5437 47.4582 90.7302 46.727C88.3253 46.3723 86.3818 45.7471 85.4138 45.2462C85.1188 45.0926 85.0092 45.1511 84.9411 45.1365C84.9418 45.0963 84.9418 45.0561 84.9411 45.0159C84.9562 44.9793 84.9411 44.9427 84.9411 44.9062C84.9836 44.8681 85.0252 44.8291 85.0659 44.7892C85.3474 44.2973 85.5079 43.7493 85.5347 43.1877C85.5353 43.1512 85.5353 43.1146 85.5347 43.078C86.896 38.2225 88.4085 33.0782 90.2613 29.0198C91.3692 26.581 92.5679 24.5884 93.6871 23.4257C94.8102 22.2557 95.5778 21.9376 96.4096 21.9376H96.3945ZM77.9571 47.875C78.8117 49.5935 80.3166 50.9609 81.8594 51.758C84.147 52.9463 86.7977 53.502 89.6488 53.9298C95.3584 54.7854 102.029 54.8439 107.496 54.8439C112.93 54.8439 119.619 54.8695 125.344 54.0395C128.195 53.63 130.827 53.0889 133.133 51.875C134.683 51.0596 136.185 49.6154 137.028 47.875C139.372 48.6794 141.331 49.535 142.7 50.3869C144.893 51.7616 145.309 52.7817 145.309 53.0194C145.309 53.2388 145.108 53.9335 143.532 55.0815C141.955 56.2259 139.232 57.5458 135.742 58.6208C128.736 60.778 118.651 62.1673 107.496 62.1673C96.3416 62.1673 86.2456 60.778 79.2503 58.6208C75.7527 57.5495 73.0302 56.2296 71.4609 55.0815C69.8766 53.9298 69.6875 53.2351 69.6875 53.0157C69.6875 52.7744 69.9825 51.864 72.168 50.5002C73.5406 49.6483 75.5712 48.7087 77.9609 47.875H77.9571ZM87.7657 67.8747C89.0135 68.0685 90.2462 68.3939 91.5469 68.5548C92.0385 71.7613 94.6324 74.5949 98.7691 74.8435C101.945 75.0264 105.538 73.5712 105.851 69.4689C106.419 69.4762 106.94 69.4689 107.508 69.4689C108.075 69.4689 108.604 69.4762 109.171 69.4689C109.481 73.5712 113.074 75.0264 116.257 74.8435C120.387 74.5949 122.973 71.7613 123.464 68.5548C124.769 68.3939 125.998 68.0685 127.246 67.8674L126.887 70.1526C125.722 76.1598 122.939 81.7429 119.437 85.582C115.947 89.421 111.837 91.4685 107.508 91.4064C103.061 91.3442 99.0376 89.2711 95.574 85.465C92.1028 81.6625 89.3727 76.189 88.1249 70.1526L87.7733 67.8674L87.7657 67.8747ZM133.969 73.1178C135.375 73.9149 139.073 76.2622 143.308 80.774L131.844 88.4265L129.121 90.145L130.543 92.9968L131.602 95.0553H119.676C121.68 93.7194 123.504 92.1473 125.106 90.3753C129.265 85.805 132.063 79.8087 133.613 73.3481C133.742 73.275 133.84 73.1909 133.969 73.1215V73.1178ZM80.9178 73.2275C81.0615 73.3152 81.2317 73.381 81.3867 73.4615C83.0051 79.8416 85.7919 85.7575 89.8945 90.2546C91.5961 92.1193 93.5737 93.7281 95.6798 95.0553H83.3908L84.4571 92.9968L85.8751 90.145L83.1677 88.4265L71.7029 80.774C75.7111 76.5035 79.3524 74.1489 80.9292 73.2311L80.9178 73.2275Z" fill="black"/>
<text fill="#D87474" xml:space="preserve" style="white-space: pre" font-family="Roboto" font-size="36" font-style="italic" font-weight="bold" letter-spacing="0em"><tspan x="26.8789" y="145.305">Spy Game</tspan></text>
</svg>
